# xmcd CD database file
#
# Track frame offsets:
#	150
#	10365
#	22612
#	33860
#	45017
#	56957
#	67762
#	79015
#	90855
#	103132
#	116310
#	128615
#	139925
#	152147
#
# Disc length: 2181 seconds
#
# Revision: 2
# Processed by: cddbd v1.5.1PL0 Copyright (c) Steve Scherf et al.
# Submitted via: CDex 1.51
#
DISCID=9908830e
DTITLE=Lester Flatt and Earl Scruggs - The Mercury Sessions, Volume 1
DYEAR=1987
DGENRE=Bluegrass
TTITLE0=Take Me In A Lifeboat
TTITLE1=We'll Meet Again Sweetheart
TTITLE2=Old Salty Dog Blues
TTITLE3=Farewell Blues
TTITLE4=Is It Too Late Now
TTITLE5=Cora is Gone
TTITLE6=So Happy I'll Be
TTITLE7=Roll In My Sweet Baby's Arms
TTITLE8=No Mother Or Dad
TTITLE9=Back To The Cross
TTITLE10=Pike County Breakdown
TTITLE11=I'll Just Pretend
TTITLE12=Down The Road
TTITLE13=I'll Be Going To Heaven Sometime
EXTD=YEAR: 1987
EXTT0=
EXTT1=
EXTT2=
EXTT3=
EXTT4=
EXTT5=
EXTT6=
EXTT7=
EXTT8=
EXTT9=
EXTT10=
EXTT11=
EXTT12=
EXTT13=
PLAYORDER=
